<?xml version="1.0" encoding="UTF-8"?>
<svg xmlns="http://www.w3.org/2000/svg" xmlns:xlink="http://www.w3.org/1999/xlink" viewBox="0 0 64 64" version="1.1" width="64px" height="64px">
<g id="surface1">
<path style=" fill:#97E0BB;" d="M 32.464844 3.035156 C 47.90625 3.84375 59.769531 17.015625 58.960938 32.460938 C 58.152344 47.902344 44.976563 59.765625 29.535156 58.957031 C 14.089844 58.148438 2.230469 44.972656 3.039063 29.53125 C 3.847656 14.085938 17.023438 2.222656 32.464844 3.035156 Z "/>
<path style=" fill:#72CAAF;" d="M 31 53 C 30.605469 53 30.214844 53 29.820313 53 C 17.667969 52.675781 8.085938 42.558594 8.410156 30.410156 C 8.734375 18.257813 18.851563 8.675781 31 9 C 31.394531 9 31.785156 9 32.179688 9 C 44.332031 9.324219 53.914063 19.441406 53.589844 31.589844 C 53.265625 43.742188 43.148438 53.324219 31 53 Z "/>
<path style=" fill:#FAEFDE;" d="M 46.179688 34.371094 C 45.601563 35.285156 44.402344 35.570313 43.46875 35.019531 C 36.679688 30.839844 26.320313 29.640625 18.300781 32.078125 C 17.585938 32.441406 16.726563 32.34375 16.113281 31.832031 C 15.5 31.320313 15.25 30.492188 15.476563 29.726563 C 15.707031 28.960938 16.367188 28.402344 17.160156 28.308594 C 26.339844 25.519531 37.75 26.871094 45.539063 31.671875 C 46.445313 32.25 46.726563 33.445313 46.179688 34.371094 M 46.449219 27.210938 C 38.300781 22.378906 24.871094 21.929688 17.101563 24.289063 C 15.851563 24.671875 14.53125 23.96875 14.148438 22.71875 C 13.769531 21.472656 14.472656 20.152344 15.71875 19.769531 C 24.640625 17.058594 39.480469 17.578125 48.859375 23.148438 C 49.621094 23.5625 50.097656 24.355469 50.101563 25.21875 C 50.101563 26.085938 49.632813 26.882813 48.871094 27.296875 C 48.113281 27.714844 47.1875 27.679688 46.460938 27.210938 "/>
<path style=" fill:#8D6C9F;" d="M 31.929688 44.269531 C 31.390625 44.160156 30.859375 44.507813 30.75 45.050781 L 30.351563 47.050781 C 30.238281 47.589844 30.589844 48.121094 31.128906 48.230469 L 31.25 48.230469 C 31.753906 48.269531 32.210938 47.925781 32.308594 47.429688 L 32.710938 45.429688 C 32.808594 44.894531 32.460938 44.378906 31.929688 44.269531 Z "/>
<path style=" fill:#8D6C9F;" d="M 26.070313 43.851563 C 25.804688 43.867188 25.554688 43.984375 25.378906 44.183594 C 25.203125 44.382813 25.113281 44.644531 25.128906 44.910156 L 25.25 46.910156 C 25.277344 47.40625 25.664063 47.804688 26.160156 47.851563 L 26.300781 47.851563 C 26.566406 47.835938 26.8125 47.714844 26.988281 47.515625 C 27.167969 47.316406 27.257813 47.054688 27.238281 46.789063 L 27.121094 44.789063 C 27.085938 44.242188 26.617188 43.820313 26.070313 43.851563 Z "/>
<path style=" fill:#8D6C9F;" d="M 21.628906 45.199219 C 21.457031 44.675781 20.890625 44.390625 20.363281 44.566406 C 19.839844 44.738281 19.554688 45.304688 19.730469 45.828125 L 20.359375 47.730469 C 20.535156 48.253906 21.101563 48.539063 21.625 48.363281 C 22.148438 48.191406 22.433594 47.625 22.261719 47.101563 Z "/>
<path style=" fill:#8D6C9F;" d="M 37.480469 46.191406 C 36.984375 45.945313 36.386719 46.144531 36.140625 46.640625 L 35.25 48.429688 C 35 48.925781 35.199219 49.527344 35.695313 49.773438 C 36.1875 50.023438 36.792969 49.824219 37.039063 49.328125 L 37.929688 47.539063 C 38.050781 47.300781 38.070313 47.023438 37.988281 46.769531 C 37.902344 46.515625 37.71875 46.308594 37.480469 46.191406 Z "/>
<path style=" fill:#8D6C9F;" d="M 39.371094 11.730469 C 40.054688 12.027344 40.722656 12.359375 41.371094 12.730469 C 41.851563 13.007813 42.464844 12.839844 42.738281 12.359375 C 43.015625 11.878906 42.851563 11.265625 42.371094 10.988281 C 41.65625 10.585938 40.921875 10.222656 40.171875 9.898438 C 39.839844 9.734375 39.445313 9.765625 39.144531 9.980469 C 38.839844 10.191406 38.683594 10.554688 38.730469 10.921875 C 38.777344 11.289063 39.023438 11.601563 39.371094 11.730469 Z "/>
<path style=" fill:#8D6C9F;" d="M 25.320313 10.738281 C 25.40625 10.75 25.492188 10.75 25.578125 10.738281 C 28.796875 9.886719 32.167969 9.804688 35.421875 10.5 C 35.972656 10.617188 36.515625 10.261719 36.628906 9.710938 C 36.746094 9.15625 36.390625 8.617188 35.839844 8.5 C 32.28125 7.738281 28.589844 7.828125 25.070313 8.761719 C 24.519531 8.832031 24.128906 9.335938 24.199219 9.890625 C 24.273438 10.441406 24.777344 10.832031 25.328125 10.761719 Z "/>
<path style=" fill:#8D6C9F;" d="M 32.519531 2 C 22.117188 1.367188 12.171875 6.367188 6.476563 15.09375 C 0.777344 23.820313 0.203125 34.9375 4.96875 44.207031 C 9.734375 53.476563 19.105469 59.476563 29.519531 59.921875 C 30.035156 59.921875 30.546875 59.921875 31.058594 59.921875 C 47.078125 60.335938 60.394531 47.6875 60.808594 31.671875 C 61.222656 15.652344 48.578125 2.335938 32.558594 1.921875 Z M 58 32.410156 C 57.203125 47.289063 44.5 58.710938 29.617188 57.929688 C 14.738281 57.144531 3.304688 44.453125 4.074219 29.570313 C 4.84375 14.6875 17.527344 3.242188 32.410156 4 C 39.574219 4.363281 46.300781 7.566406 51.101563 12.894531 C 55.902344 18.226563 58.382813 25.246094 58 32.410156 Z "/>
<path style=" fill:#8D6C9F;" d="M 49.351563 23.289063 C 39.738281 17.578125 24.550781 17.039063 15.410156 19.808594 C 13.632813 20.363281 12.644531 22.25 13.195313 24.023438 C 13.746094 25.800781 15.632813 26.792969 17.410156 26.238281 C 24.96875 23.941406 38.039063 24.359375 45.960938 29.058594 C 46.476563 29.367188 47.066406 29.53125 47.671875 29.53125 C 47.957031 29.53125 48.242188 29.492188 48.519531 29.421875 C 49.363281 29.195313 50.082031 28.644531 50.519531 27.890625 C 51.460938 26.296875 50.9375 24.242188 49.351563 23.289063 Z M 48.808594 26.878906 C 48.632813 27.183594 48.339844 27.402344 48 27.488281 C 47.660156 27.570313 47.300781 27.519531 47 27.339844 C 41.789063 24.25 34.5 22.898438 27.808594 22.898438 C 24.09375 22.84375 20.390625 23.324219 16.808594 24.320313 C 16.089844 24.539063 15.324219 24.136719 15.105469 23.414063 C 14.882813 22.695313 15.289063 21.929688 16.011719 21.710938 C 24.730469 19.058594 39.210938 19.570313 48.351563 25 C 48.996094 25.394531 49.203125 26.234375 48.808594 26.878906 Z "/>
<path style=" fill:#8D6C9F;" d="M 46.058594 31.820313 C 38.058594 26.878906 26.300781 25.488281 16.871094 28.351563 C 16.113281 28.574219 15.480469 29.09375 15.109375 29.789063 C 14.738281 30.484375 14.65625 31.296875 14.878906 32.050781 C 15.359375 33.613281 17.007813 34.503906 18.578125 34.050781 C 26.371094 31.679688 36.378906 32.851563 42.949219 36.890625 C 43.414063 37.171875 43.945313 37.320313 44.488281 37.320313 C 45.515625 37.304688 46.460938 36.769531 47 35.898438 C 47.417969 35.230469 47.546875 34.417969 47.359375 33.648438 C 47.1875 32.890625 46.71875 32.230469 46.058594 31.820313 Z M 45.328125 34.820313 C 45.042969 35.265625 44.460938 35.410156 44 35.148438 C 38.886719 32.234375 33.085938 30.742188 27.199219 30.828125 C 24.085938 30.8125 20.988281 31.25 18 32.128906 C 17.757813 32.199219 17.496094 32.175781 17.269531 32.058594 C 17.046875 31.9375 16.878906 31.734375 16.800781 31.488281 C 16.660156 30.976563 16.945313 30.445313 17.449219 30.28125 C 26.371094 27.570313 37.449219 28.878906 45.03125 33.539063 C 45.242188 33.667969 45.394531 33.878906 45.449219 34.121094 C 45.503906 34.371094 45.460938 34.632813 45.328125 34.851563 Z "/>
<path style=" fill:#FAEFDE;" d="M 38.871094 42.808594 C 33.148438 40.5 26.890625 39.832031 20.808594 40.890625 C 19.78125 41.074219 18.78125 40.433594 18.519531 39.421875 C 18.40625 38.902344 18.507813 38.363281 18.808594 37.925781 C 19.105469 37.488281 19.566406 37.195313 20.089844 37.109375 C 26.78125 35.960938 34.378906 36.261719 40.601563 39.449219 C 41.507813 39.914063 41.886719 41.015625 41.449219 41.941406 C 40.949219 42.859375 39.824219 43.242188 38.871094 42.808594 Z "/>
<path style=" fill:#8D6C9F;" d="M 39.71875 44 C 39.292969 44.003906 38.871094 43.914063 38.480469 43.738281 C 33 41.277344 26.875 40.625 21 41.878906 C 20.25 42.039063 19.472656 41.894531 18.832031 41.476563 C 18.191406 41.054688 17.742188 40.398438 17.589844 39.648438 C 17.40625 38.867188 17.554688 38.042969 18 37.371094 C 18.460938 36.683594 19.183594 36.214844 20 36.078125 C 28 34.449219 35.210938 35.308594 41.109375 38.519531 C 42.5 39.242188 43.070313 40.933594 42.398438 42.351563 C 41.914063 43.382813 40.863281 44.03125 39.71875 44 Z M 39.25 41.898438 C 39.730469 42.136719 40.3125 41.953125 40.570313 41.480469 C 40.757813 41.042969 40.574219 40.535156 40.148438 40.320313 C 35.148438 37.398438 28.03125 36.46875 20.230469 38.070313 C 19.960938 38.117188 19.722656 38.273438 19.570313 38.5 C 19.441406 38.699219 19.398438 38.941406 19.449219 39.171875 C 19.574219 39.699219 20.097656 40.03125 20.628906 39.921875 C 26.886719 38.574219 33.410156 39.273438 39.238281 41.921875 Z "/>
</g>
</svg>
